<?xml version="1.0" encoding="UTF-8" standalone="no"?>
<!DOCTYPE svg PUBLIC "-//W3C//DTD SVG 1.1//EN" "http://www.w3.org/Graphics/SVG/1.1/DTD/svg11.dtd">
<svg xmlns="http://www.w3.org/2000/svg" xmlns:xlink="http://www.w3.org/1999/xlink" version="1.1" width="1024pt" height="1024pt" viewBox="0 0 1024 1024">
<g enable-background="new">
<clipPath id="cp0">
<path transform="matrix(1,0,0,-1,0,1024)" d="M 9.88419 7.15948 L 1014.17 7.15948 L 1014.17 1035.66 L 9.88419 1035.66 Z "/>
</clipPath>
<g clip-path="url(#cp0)">
<clipPath id="cp1">
<path d="M 348.182 288.128 L 861.919 288.128 L 861.919 1016.84 L 348.182 1016.84 Z "/>
</clipPath>
<g clip-path="url(#cp1)">
<path transform="matrix(1,0,0,1,383.3088,1010.7966)" d="M 0 0 C -6.4612 -2.5869 -12.0439 -7.3274 -15.2966 -14.242 C -15.3046 -14.2591 -15.3122 -14.2758 -15.3202 -14.293 C -15.37 -14.3994 -15.42 -14.5081 -15.4686 -14.6155 C -15.5234 -14.7363 -15.5774 -14.8577 -15.6307 -14.9799 C -15.8081 -15.3862 -15.9787 -15.8008 -16.1401 -16.2217 C -26.5992 -40.0579 -34.8733 -65.3369 -34.8759 -91.2088 C -34.8766 -98.7874 -34.1677 -106.4169 -32.5959 -114.0759 C -24.8065 -158.9387 -12.235 -202.879 1.4741 -246.2609 C 36.0116 -352.9719 72.1087 -460.2331 127.3009 -558.3024 C 129.163 -561.4143 131.0284 -564.5245 132.8975 -567.6329 C 145.9809 -589.3911 159.2437 -611.056 172.7884 -632.5277 C 176.3815 -638.6924 181.0157 -644.5031 187.2245 -648.0695 C 188.3068 -648.6912 189.4368 -649.2447 190.6177 -649.72 C 190.773 -649.7924 190.9302 -649.8644 191.0852 -649.9344 C 195.9125 -652.1133 200.6042 -653.1004 205.0464 -653.1007 C 225.0654 -653.1019 240.0044 -633.0393 239.3649 -611.4841 C 239.3661 -611.191 239.3666 -610.8978 239.3666 -610.6047 C 239.3664 -609.7255 239.3605 -608.8467 239.3492 -607.9684 C 238.8826 -571.6647 229.0925 -536.1509 222.909 -500.5206 C 214.3964 -454.5883 207.069 -408.3137 204.6438 -361.6163 C 204.6248 -361.2486 204.6059 -360.8809 204.5875 -360.5131 C 208.298 -367.364 212.0193 -374.2088 215.7492 -381.0489 C 251.8049 -447.1694 288.6683 -512.8391 324.5566 -579.0522 C 342.5225 -612.7542 359.6857 -646.8904 378.2348 -680.2821 C 386.0822 -692.2041 391.522 -706.8812 404.2755 -714.4845 C 418.1832 -722.4188 438.4077 -721.2397 450.0318 -709.7894 C 478.3602 -674.8092 441.6632 -585.8861 434.7053 -543.464 C 400.1559 -411.8685 378.1199 -277.7235 363.5787 -142.6085 C 361.5015 -123.3063 359.5771 -103.9844 357.7911 -84.6472 C 355.942 -67.2524 354.1053 -49.8533 352.2562 -32.4583 C 346.4893 5.7939 290.681 .3441 290.6339 -36.2968 C 290.6319 -37.7668 290.7198 -39.2903 290.9044 -40.86 C 307.0748 -204.6041 325.6735 -368.4515 367.3304 -527.9968 C 365.2233 -524.1393 363.1127 -520.2837 360.9991 -516.4296 C 329.2961 -458.6186 296.9324 -401.1622 265.6703 -343.1058 C 250.0203 -316.6615 236.824 -285.7473 210.6711 -268.0392 C 210.0435 -267.6143 209.4083 -267.1969 208.7655 -266.7873 C 174.7823 -246.6497 143.5583 -277.609 142.9419 -312.283 C 142.3881 -321.3364 142.1298 -330.3937 142.124 -339.4503 C 142.0935 -386.9418 149.0045 -434.4124 156.6304 -481.1855 C 114.8825 -394.4467 84.3493 -302.8472 55.3012 -211.2269 C 44.2024 -172.288 31.8625 -133.2455 27.1797 -92.9 C 26.8629 -90.8958 26.7204 -88.9114 26.7242 -86.9442 C 26.7643 -66.3404 42.859 -47.6235 42.8773 -27.7525 C 42.8808 -23.9581 42.2981 -20.1214 40.9054 -16.2217 C 37.8361 -8.223 31.7402 -2.7947 24.584 .0337 C 20.7037 1.567 16.512 2.3356 12.3206 2.3356 C 8.1062 2.3356 3.8937 1.5587 0 0 Z " fill="#ffffff"/>
</g>
<clipPath id="cp2">
<path d="M 9.88419 -11.6595 L 1014.17 -11.6595 L 1014.17 759.941 L 9.88419 759.941 Z "/>
</clipPath>
<g clip-path="url(#cp2)">
<path transform="matrix(1,0,0,1,35.0882,758.7825)" d="M 0 0 C -.1554 -.0428 -.3106 -.0872 -.4656 -.1332 C -.5428 -.1561 -.6208 -.1797 -.6979 -.2034 C -19.623 -7.0792 -24.954 -22.8905 -24.9414 -40.6144 C -24.9293 -57.6593 -19.9751 -76.4713 -17.4167 -90.801 C -10.3425 -121.9377 -1.3425 -152.6018 6.7239 -183.4885 C 35.0979 -284.5833 66.4885 -385.1656 104.0648 -483.3023 C 117.6098 -518.6759 131.959 -553.7334 147.2591 -588.3792 C 161.2786 -618.9534 177.2318 -648.5159 193.6849 -677.8362 C 206.9427 -698.512 216.4388 -722.7268 233.8919 -740.1956 C 234.0057 -740.2798 234.1181 -740.3623 234.2319 -740.4451 C 234.6658 -740.7606 235.1035 -741.0679 235.5371 -741.362 C 235.5691 -741.3837 235.6009 -741.4052 235.6329 -741.4268 C 235.7893 -741.5323 235.9417 -741.6339 236.098 -741.7366 C 236.1016 -741.739 236.1075 -741.7428 236.111 -741.7451 C 238.1435 -743.0803 240.172 -744.1832 242.1825 -745.069 C 242.2088 -745.0806 242.2365 -745.0927 242.2628 -745.1041 C 242.2997 -745.1203 242.3347 -745.1356 242.3716 -745.1516 C 265.9819 -755.3976 287.1369 -735.6998 285.139 -709.9982 C 284.939 -707.4244 284.5067 -704.7917 283.8216 -702.1213 C 281.2708 -688.969 278.6966 -675.8206 276.1146 -662.6682 C 275.0091 -657.0549 273.9075 -651.4456 272.7982 -645.8362 C 271.9622 -641.5862 271.1224 -637.3284 270.2825 -633.0745 C 269.5225 -629.2168 268.7645 -625.3615 268.0056 -621.505 C 267.684 -619.8706 267.3624 -618.2363 267.0403 -616.6018 C 264.8763 -605.6487 262.72 -594.6956 260.5755 -583.7385 C 259.6261 -578.9003 258.6795 -574.0649 257.7353 -569.2276 C 257.51 -568.0751 257.2846 -566.9222 257.0599 -565.7698 C 255.6575 -558.594 254.263 -551.4221 252.8802 -544.2502 C 252.2669 -541.0823 251.6536 -537.9182 251.0443 -534.7502 C 247.1146 -514.3284 243.2435 -493.9026 239.4778 -473.4534 C 238.3333 -467.2464 237.1966 -461.0393 236.0755 -454.8362 C 235.4974 -451.6565 234.9271 -448.4807 234.3568 -445.305 C 233.22 -438.9456 232.0872 -432.5901 230.9778 -426.2307 C 230.6062 -424.114 230.2364 -421.9973 229.8683 -419.8812 C 229.1293 -415.6349 228.3966 -411.3888 227.6693 -407.1448 C 227.1575 -404.1448 226.6458 -401.1448 226.1419 -398.1409 C 225.4544 -394.0823 224.7747 -390.0237 224.1028 -385.9573 C 230.4583 -390.4495 236.8216 -394.9417 243.1888 -399.4261 C 245.4466 -401.012 247.7122 -402.6057 249.9778 -404.1956 C 252.4935 -405.9651 255.0091 -407.7307 257.5286 -409.4925 C 259.7161 -411.0276 261.9114 -412.5628 264.1028 -414.094 C 266.6966 -415.9065 269.2903 -417.719 271.8919 -419.5276 C 274.013 -421.0042 276.1341 -422.4768 278.2552 -423.9495 C 282.9818 -427.2268 287.7083 -430.4964 292.4466 -433.7542 C 297.5794 -437.2815 302.7161 -440.8011 307.8685 -444.2971 C 309.8489 -445.6487 311.8294 -446.9925 313.8177 -448.3362 C 315.8919 -449.7425 317.9739 -451.1448 320.056 -452.5432 C 320.6396 -452.9377 321.2249 -453.3321 321.8084 -453.7253 C 322.0695 -453.9003 322.3305 -454.0753 322.5911 -454.2503 C 324.4349 -455.4886 326.2747 -456.7229 328.1224 -457.9573 C 329.3551 -458.7791 330.5866 -459.5996 331.8182 -460.4196 C 332.7528 -461.041 333.6875 -461.6617 334.6224 -462.2815 C 334.7075 -462.3398 334.7934 -462.3979 334.8797 -462.456 C 335.0193 -462.5491 335.1592 -462.6426 335.3021 -462.7346 C 337.4778 -464.1761 339.6536 -465.6175 341.8372 -467.055 C 344.4544 -468.7815 347.0755 -470.5003 349.7044 -472.2151 C 351.6146 -473.469 353.5325 -474.7112 355.4505 -475.9534 C 356.5169 -476.6526 357.5911 -477.344 358.6653 -478.0354 C 360.7161 -479.3636 362.763 -480.6839 364.8177 -481.9964 C 366.7943 -483.2659 368.7708 -484.5276 370.7513 -485.7854 C 373.4036 -487.4807 376.0716 -489.1682 378.7357 -490.8479 C 497.888 -565.8557 627.2161 -623.0354 756.5793 -677.887 C 808.6771 -697.2766 978.8308 -770.192 978.7627 -672.7522 C 978.7603 -669.2528 978.5382 -665.5393 978.0833 -661.5901 C 973.3879 -638.5667 961.4856 -617.9377 951.7708 -596.7737 C 949.7772 -592.5311 947.0797 -588.7931 943.6508 -585.8359 C 941.4695 -583.9557 938.9926 -582.392 936.2122 -581.2151 C 927.4226 -577.3124 917.2456 -578.5522 909.3247 -583.4354 C 905.0078 -586.097 901.3625 -589.8396 898.9745 -594.4232 C 898.9321 -594.5046 898.8903 -594.586 898.8486 -594.668 C 898.7314 -594.8986 898.6173 -595.1316 898.5066 -595.3664 C 898.4762 -595.4309 898.4451 -595.4974 898.4152 -595.5623 C 898.3137 -595.7818 898.2162 -596.001 898.1205 -596.2241 C 898.0425 -596.4058 897.9659 -596.5896 897.8918 -596.7737 C 891.7806 -613.301 901.3109 -628.7705 909.5446 -644.1528 C 913.0258 -650.6552 916.2755 -657.1431 918.0129 -663.6877 L 918.012 -663.6877 C 918.0123 -663.6891 918.0126 -663.6903 918.0129 -663.6917 C 872.9114 -661.0667 830.3997 -642.7854 788.3801 -627.5237 C 725.1926 -602.6213 663.7356 -573.5393 602.0247 -545.219 C 553.5164 -523.3571 506.601 -498.6032 460.8319 -471.843 C 381.1836 -425.2751 305.0264 -372.6397 230.129 -318.673 C 228.7305 -317.6654 227.3325 -316.6573 225.9349 -315.6487 C 223.7278 -314.1487 221.5247 -312.6409 219.3255 -311.1292 C 218.2708 -310.4104 217.2161 -309.6839 216.1614 -308.9573 C 214.6927 -307.9495 213.2239 -306.9378 211.7591 -305.9261 C 211.4544 -303.7854 211.1497 -301.6448 210.8528 -299.5081 C 210.4898 -296.8818 210.1269 -294.257 209.7668 -291.6317 C 209.4991 -289.6824 209.233 -287.7325 208.97 -285.7815 C 208.6693 -283.5393 208.3685 -281.3011 208.0755 -279.0589 C 207.5989 -275.5003 207.138 -271.9378 206.681 -268.3753 C 205.9896 -262.9729 205.3138 -257.5745 204.6536 -252.1682 C 204.3997 -250.0862 204.1458 -248.0081 203.8997 -245.926 C 203.6107 -243.5159 203.3255 -241.1096 203.0482 -238.7034 C 202.7825 -236.4573 202.5247 -234.2151 202.2708 -231.969 C 201.7552 -227.4963 201.263 -223.0198 200.7786 -218.5432 C 200.5461 -216.4026 200.3172 -214.2655 200.0917 -212.1252 C 200.0785 -212.0016 200.0653 -211.8779 200.0521 -211.7542 C 199.845 -209.7971 199.6419 -207.844 199.4388 -205.8909 C 199.4114 -205.594 199.3802 -205.301 199.3489 -205.0081 C 198.9349 -200.9495 198.5325 -196.887 198.1341 -192.8245 C 197.845 -189.8088 197.556 -186.7854 197.2786 -183.7659 C 197.0989 -181.844 196.9193 -179.9299 196.7513 -178.0081 C 196.738 -177.8599 196.7248 -177.7119 196.7115 -177.5637 C 196.3467 -173.5344 195.993 -169.5016 195.6575 -165.4651 C 195.2396 -160.512 194.8372 -155.5588 194.4583 -150.5979 C 194.345 -149.1487 194.2357 -147.7034 194.1263 -146.2542 C 194.0482 -145.2346 193.9739 -144.2151 193.9036 -143.1917 C 193.6614 -139.969 193.4349 -136.7502 193.2161 -133.5237 C 193.1028 -131.9143 192.9935 -130.301 192.888 -128.6917 C 192.6735 -125.4207 192.4629 -122.1537 192.2669 -118.8829 C 192.2631 -118.8192 192.2591 -118.7554 192.2552 -118.6917 C 192.1732 -117.3752 192.095 -116.0588 192.0169 -114.7424 C 191.9271 -113.2698 191.845 -111.7932 191.763 -110.3167 C 191.6497 -108.3752 191.5482 -106.4338 191.4427 -104.4924 C 191.3997 -103.762 191.3646 -103.0315 191.3294 -102.2971 C 191.2513 -100.8596 191.181 -99.4182 191.1028 -97.9768 C 191.0798 -97.4497 191.0525 -96.9204 191.0273 -96.3906 C 191.0182 -96.203 191.0095 -96.0155 191.0013 -95.8284 C 190.9075 -93.8713 190.8138 -91.9143 190.7239 -89.9534 C 189.9702 -85.715 189.6654 -81.2692 189.5269 -76.7369 C 189.5249 -76.6727 189.5229 -76.6066 189.521 -76.5424 C 189.5204 -76.5223 189.5198 -76.5012 189.5192 -76.4811 C 189.0146 -59.1937 190.8477 -40.6689 179.3724 -27.4768 C 174.4066 -22.1396 168.0099 -19.5194 161.4628 -19.1082 C 145.8568 -18.1285 129.4004 -29.6968 129.4371 -46.944 C 129.4379 -47.3418 129.4475 -47.741 129.4661 -48.1448 C 129.6732 -52.719 129.8919 -57.2971 130.1224 -61.8674 C 130.1305 -62.0351 130.1388 -62.2029 130.1469 -62.3705 C 130.2377 -64.2236 130.3342 -66.0768 130.431 -67.9299 C 130.5443 -70.1252 130.6614 -72.3245 130.7864 -74.5159 C 131.1536 -81.2581 131.5482 -87.9963 131.9661 -94.7307 C 132.0286 -95.6956 132.0911 -96.6643 132.1497 -97.6331 C 132.2825 -99.7346 132.4193 -101.8362 132.556 -103.9299 C 132.7161 -106.3713 132.8763 -108.8088 133.0443 -111.2502 C 133.0677 -111.5862 133.0911 -111.926 133.1146 -112.2659 C 133.2278 -113.9065 133.3411 -115.5432 133.4544 -117.1838 C 133.5364 -118.3206 133.6185 -119.4651 133.7005 -120.6057 C 134.0169 -124.9885 134.3411 -129.3752 134.6732 -133.7581 C 134.7943 -135.3088 134.9114 -136.8518 135.0325 -138.4026 C 135.1302 -139.6604 135.2318 -140.9182 135.3294 -142.1721 C 135.5989 -145.5823 135.8763 -148.9885 136.1575 -152.3987 C 136.3607 -154.7932 136.5638 -157.1956 136.7669 -159.5979 C 137.1693 -164.3362 137.5911 -169.0667 138.0169 -173.801 C 138.1224 -174.969 138.2318 -176.137 138.3372 -177.301 C 138.4857 -178.9143 138.6341 -180.5237 138.7864 -182.137 C 138.8607 -182.9573 138.9388 -183.7737 139.0169 -184.594 C 139.2005 -186.551 139.3841 -188.5081 139.5755 -190.4651 C 140.0716 -195.637 140.5833 -200.8088 141.1107 -205.9768 C 141.3333 -208.1643 141.556 -210.3479 141.7864 -212.5315 C 141.9974 -214.5823 142.2083 -216.6292 142.431 -218.6799 C 143.3685 -227.551 144.3489 -236.4182 145.3685 -245.2854 C 145.6185 -247.4651 145.8724 -249.6448 146.1263 -251.8323 C 146.3528 -253.7659 146.5794 -255.7034 146.8138 -257.637 C 146.845 -257.8831 146.8724 -258.1292 146.8997 -258.3714 C 142.4232 -254.805 137.9857 -251.1917 133.5911 -247.5198 C 133.2563 -247.2404 132.9222 -246.9602 132.5883 -246.6796 C 132.477 -246.5863 132.3659 -246.4929 132.2548 -246.3993 C 131.9713 -246.1609 131.6878 -245.9225 131.4036 -245.6838 C 130.4114 -244.8479 129.4232 -244.012 128.4388 -243.1682 C 127.763 -242.5862 127.0833 -242.0081 126.4075 -241.426 C 125.6614 -240.7854 124.9193 -240.1448 124.1732 -239.4924 C 123.4935 -238.9104 122.8177 -238.3167 122.138 -237.719 C 120.595 -236.3713 119.056 -235.0081 117.5247 -233.637 C 116.8841 -233.0667 116.2474 -232.4963 115.6107 -231.9221 C 114.7786 -231.1682 113.9466 -230.4143 113.1146 -229.6565 C 112.8808 -229.4431 112.6477 -229.2285 112.4146 -229.0135 C 112.02 -228.6512 111.6266 -228.2875 111.2318 -227.9221 C 110.4193 -227.1799 109.6068 -226.426 108.7982 -225.6682 C 108.0755 -225.0002 107.3568 -224.3245 106.6419 -223.6487 C 106.0716 -223.1174 105.5052 -222.5784 104.9427 -222.0354 C 104.2621 -221.3895 103.5793 -220.7394 102.9008 -220.0865 C 102.6646 -219.86 102.4285 -219.6332 102.1927 -219.4065 C 101.681 -218.9143 101.1732 -218.426 100.6693 -217.9299 C 100.3028 -217.5765 99.9366 -217.2201 99.5724 -216.859 C 99.5004 -216.7878 99.4284 -216.7164 99.3564 -216.6444 C 99.3539 -216.642 99.3514 -216.6395 99.3489 -216.637 C 98.7669 -216.0706 98.1888 -215.5042 97.6146 -214.9377 C 97.0833 -214.4104 96.556 -213.8792 96.0208 -213.3518 C 95.5716 -212.9026 95.1185 -212.4495 94.6653 -211.9963 C 94.2708 -211.5979 93.8763 -211.1956 93.4778 -210.7971 C 90.0237 -207.3 86.6183 -203.7457 83.2642 -200.1301 C 82.0502 -198.8223 80.8427 -197.5071 79.6419 -196.1838 C 79.6341 -195.8987 79.6263 -195.6174 79.6028 -195.3401 C 79.595 -195.2112 79.5872 -195.0784 79.5716 -194.9456 C 79.5677 -194.8127 79.5599 -194.6799 79.5403 -194.5549 C 79.5286 -194.3909 79.513 -194.219 79.4935 -194.0549 C 79.4661 -193.7971 79.4349 -193.5432 79.3997 -193.2893 C 79.3568 -192.9963 79.3099 -192.7034 79.2591 -192.4104 C 79.2161 -192.1721 79.1732 -191.9299 79.1224 -191.6917 C 79.0911 -191.5549 79.0638 -191.4182 79.0325 -191.2815 C 78.9739 -191.0198 78.9153 -190.7542 78.8489 -190.4963 C 78.7786 -190.2112 78.6966 -189.9299 78.6185 -189.6526 C 78.5989 -189.5862 78.5794 -189.5198 78.556 -189.4534 C 78.5052 -189.262 78.4427 -189.0745 78.3802 -188.8909 C 78.3727 -188.8646 78.3651 -188.8385 78.3575 -188.8127 C 78.3324 -188.7322 78.3055 -188.6522 78.2786 -188.5745 C 78.1614 -188.2268 78.0364 -187.8831 77.8997 -187.5393 C 77.8294 -187.344 77.7552 -187.1565 77.681 -186.969 C 77.6693 -186.9456 77.6614 -186.9221 77.6458 -186.8987 C 77.556 -186.676 77.4622 -186.4534 77.3646 -186.2385 C 77.2245 -185.9222 77.0776 -185.6085 76.9252 -185.2981 C 76.814 -185.0736 76.6998 -184.8506 76.5833 -184.6292 C 76.4974 -184.469 76.4153 -184.3088 76.3255 -184.1487 C 76.3165 -184.1315 76.3073 -184.1145 76.298 -184.0975 C 76.2575 -184.0272 76.2185 -183.9565 76.1771 -183.8831 C 76.0872 -183.7229 75.9974 -183.5667 75.9036 -183.4143 C 75.6653 -183.0042 75.4153 -182.6018 75.1497 -182.2073 C 75.0716 -182.0784 74.9857 -181.9534 74.8958 -181.8323 C 74.8737 -181.7986 74.8521 -181.7653 74.8302 -181.7322 C 74.7986 -181.6863 74.7665 -181.64 74.733 -181.593 C 74.7188 -181.5739 74.7041 -181.5546 74.6888 -181.5354 C 74.5911 -181.387 74.4935 -181.2463 74.3841 -181.1057 C 74.2474 -180.9104 74.1068 -180.7229 73.9661 -180.5393 C 73.7982 -180.3245 73.6302 -180.1135 73.4544 -179.8987 C 73.3467 -179.765 73.2372 -179.6305 73.126 -179.4967 C 73.0032 -179.3506 72.8778 -179.2057 72.7513 -179.0627 C 72.5755 -178.8596 72.3958 -178.6604 72.2122 -178.4651 C 72.2094 -178.4603 72.206 -178.4556 72.2023 -178.4508 C 72.1898 -178.4373 72.1768 -178.4219 72.1614 -178.4065 C 71.9583 -178.1838 71.7513 -177.969 71.5403 -177.7581 C 71.3333 -177.551 71.1302 -177.344 70.9193 -177.1448 C 70.22 -176.4768 69.4896 -175.8401 68.7357 -175.2424 C 68.5911 -175.1252 68.4466 -175.0081 68.2943 -174.8948 C 68.1419 -174.7815 67.9935 -174.6682 67.8372 -174.5549 C 67.6653 -174.4221 67.4857 -174.2971 67.306 -174.1682 C 67.056 -173.9885 66.7982 -173.8167 66.5443 -173.6448 C 66.2825 -173.4768 66.0247 -173.3088 65.763 -173.1487 C 65.763 -173.1479 65.7627 -173.1475 65.7625 -173.1469 C 65.7614 -173.1462 65.7602 -173.1455 65.7591 -173.1448 C 65.7591 -173.1418 65.7569 -173.1411 65.7558 -173.141 C 65.7556 -173.1409 65.7552 -173.1409 65.7552 -173.1409 C 65.6028 -173.0463 65.4476 -172.9517 65.2914 -172.8578 C 65.184 -172.7938 65.0759 -172.7303 64.9661 -172.6682 C 64.7005 -172.512 64.4349 -172.3596 64.1614 -172.2151 C 63.9661 -171.5002 63.7747 -170.7893 63.5794 -170.0706 C 62.9583 -167.7932 62.3411 -165.5081 61.7318 -163.2229 C 61.0286 -160.6213 60.3294 -158.012 59.638 -155.4026 C 59.0989 -153.3713 58.5599 -151.344 58.0247 -149.3088 C 57.4193 -147.0159 56.8177 -144.7151 56.2161 -142.4182 C 55.845 -140.9768 55.4661 -139.5315 55.0911 -138.0901 C 54.9622 -137.6018 54.8411 -137.1174 54.7122 -136.6292 C 54.4548 -135.631 54.1984 -134.6349 53.9425 -133.6388 C 53.689 -132.6539 53.4355 -131.6688 53.181 -130.6838 C 50.7591 -121.2424 48.3841 -111.7893 46.056 -102.3245 C 45.8784 -101.592 45.6984 -100.8583 45.5186 -100.1247 C 45.3818 -99.5681 45.2455 -99.0112 45.1107 -98.4534 C 44.763 -97.0315 44.4153 -95.6096 44.0716 -94.1877 C 43.6653 -92.5159 43.2591 -90.8479 42.8607 -89.176 C 42.8333 -89.0588 42.7982 -88.9377 42.7708 -88.8167 C 42.3099 -86.8909 41.8489 -84.9651 41.388 -83.0354 C 39.6497 -75.7424 37.9349 -68.4495 36.2552 -61.1448 C 68.4423 -50.8671 59.5041 -3.8416 28.1162 -3.8363 C 26.7214 -3.8361 25.2878 -3.9286 23.806 -4.1213 C 21.8361 -2.9294 19.7421 -1.9071 17.5704 -1.1013 C 14.1265 .1763 10.4871 .9085 6.8349 .9086 C 4.5461 .9086 2.2534 .6212 0 0 Z M 101.0247 -296.9182 L 101.0286 -296.9182 C 103.0521 -298.5745 105.0911 -300.2112 107.1419 -301.8362 C 108.1653 -302.6526 109.1927 -303.4612 110.2239 -304.2737 C 111.4583 -305.2425 112.6927 -306.2034 113.9349 -307.1643 C 114.763 -307.8089 115.5989 -308.4495 116.431 -309.0862 C 117.3607 -309.8011 118.2864 -310.5081 119.22 -311.2151 C 119.9583 -311.7815 120.7083 -312.344 121.4505 -312.9104 C 122.3646 -313.6018 123.2786 -314.2893 124.1966 -314.9729 C 125.138 -315.6761 126.0794 -316.3792 127.0208 -317.0784 C 128.7278 -318.3479 130.4427 -319.6096 132.1575 -320.8675 C 132.6791 -321.2499 133.2017 -321.6324 133.7246 -322.0144 C 134.2595 -322.4039 134.795 -322.7934 135.3294 -323.1839 C 140.6263 -327.0354 145.9583 -330.8518 151.3021 -334.6331 C 153.3958 -336.094 155.4818 -337.5511 157.5677 -339.012 C 157.8919 -341.2581 158.22 -343.5042 158.5521 -345.7464 C 158.8802 -347.9925 159.2161 -350.2386 159.5482 -352.4807 C 159.639 -353.0932 159.7301 -353.7052 159.8215 -354.317 C 160.0526 -355.8648 160.2857 -357.4121 160.5208 -358.9573 C 160.5677 -359.2581 160.6068 -359.5628 160.6536 -359.8636 C 161.3021 -364.137 161.9583 -368.4065 162.6185 -372.6721 C 162.6458 -372.8362 162.6693 -373.0042 162.6927 -373.1682 C 163.3685 -377.4886 164.0521 -381.8089 164.7396 -386.1253 C 165.095 -388.3675 165.4544 -390.6096 165.8177 -392.8518 C 166.0794 -394.4846 166.345 -396.1253 166.6107 -397.762 C 166.8372 -399.1604 167.0677 -400.5589 167.2982 -401.9573 C 167.3979 -402.5638 167.4969 -403.1682 167.5958 -403.7723 C 167.7338 -404.6123 167.872 -405.4521 168.013 -406.2932 C 168.7864 -410.9925 169.5755 -415.6878 170.3724 -420.3831 C 170.6502 -422.0306 170.93 -423.6815 171.2119 -425.3313 C 171.378 -426.3015 171.5445 -427.272 171.7122 -428.2425 C 172.1614 -430.8596 172.6107 -433.4768 173.0677 -436.094 C 173.5247 -438.719 173.9818 -441.3362 174.4427 -443.9495 C 174.5354 -444.4703 174.6278 -444.9914 174.7201 -445.5125 C 174.9868 -447.0122 175.2529 -448.5111 175.5169 -450.0081 C 175.7122 -451.0979 175.9036 -452.1878 176.1028 -453.2737 C 176.5013 -455.512 176.9036 -457.7503 177.306 -459.9807 C 178.0599 -464.1604 178.8216 -468.3401 179.595 -472.5159 C 180.3021 -476.3596 181.0169 -480.1917 181.7396 -484.0315 C 182.1771 -486.3596 182.6146 -488.6956 183.056 -491.0276 C 183.5521 -493.6409 184.0521 -496.2503 184.5482 -498.8636 C 184.7183 -499.7527 184.8888 -500.6418 185.0597 -501.5308 C 187.6222 -514.866 190.2596 -528.1846 192.9622 -541.4963 C 193.3333 -543.3245 193.7044 -545.1448 194.0755 -546.9729 C 194.5325 -549.1995 194.9896 -551.4221 195.4466 -553.6487 C 195.4462 -553.6477 195.4454 -553.6459 195.445 -553.6449 C 195.4456 -553.6475 195.4461 -553.65 195.4466 -553.6526 C 191.9896 -545.3635 188.5716 -537.0627 185.1849 -528.7385 C 184.2708 -526.5081 183.3646 -524.2698 182.4583 -522.0354 C 181.6068 -519.9299 180.7552 -517.8206 179.9114 -515.7112 C 179.22 -514.0002 178.5325 -512.2854 177.8489 -510.5706 C 176.0482 -506.0901 174.263 -501.5979 172.4896 -497.1057 C 171.5911 -494.8284 170.6888 -492.5511 169.8021 -490.2698 C 168.7552 -487.6214 167.72 -484.9651 166.6888 -482.3089 C 165.7474 -479.9026 164.8138 -477.4964 163.8802 -475.0823 C 163.6966 -474.5979 163.5091 -474.1175 163.3255 -473.637 C 162.388 -471.2112 161.4505 -468.7893 160.5247 -466.3596 C 159.7474 -464.3323 158.97 -462.2971 158.1966 -460.2698 C 158.055 -459.8978 157.9138 -459.5261 157.7726 -459.1546 C 157.379 -458.1227 156.986 -457.0908 156.595 -456.0589 C 156.5286 -455.8909 156.47 -455.7229 156.4075 -455.555 C 155.4896 -453.1409 154.5755 -450.7229 153.6653 -448.3089 C 152.7161 -445.7815 151.763 -443.2542 150.8216 -440.7268 C 150.013 -438.5589 149.2044 -436.387 148.3958 -434.219 C 148.131 -433.5008 147.8661 -432.782 147.601 -432.0631 C 147.1456 -430.8312 146.6899 -429.5994 146.2357 -428.3675 C 141.2161 -414.7581 136.2903 -401.1175 131.4583 -387.4417 C 131.1717 -386.6332 130.886 -385.8256 130.6019 -385.0176 C 130.3239 -384.2279 130.0469 -383.4384 129.7708 -382.6487 C 129.5019 -381.8882 129.2339 -381.1259 128.9668 -380.363 C 128.6944 -379.5868 128.4235 -378.8097 128.1536 -378.0315 C 127.3138 -375.6448 126.4818 -373.2581 125.6536 -370.8636 C 123.513 -364.7073 121.3997 -358.5432 119.306 -352.3714 C 118.7513 -350.7659 118.2122 -349.1604 117.6653 -347.555 C 116.9818 -345.5354 116.306 -343.5159 115.6263 -341.4964 C 114.9193 -339.4026 114.2239 -337.3167 113.5247 -335.2268 C 113.2278 -334.3401 112.9388 -333.4573 112.6458 -332.5706 C 112.1755 -331.1723 111.7102 -329.7741 111.2487 -328.3748 C 111.001 -327.6255 110.7543 -326.8759 110.5091 -326.1253 C 109.6614 -323.5628 108.8177 -320.9964 107.9778 -318.43 C 107.1693 -315.9651 106.3685 -313.5042 105.5716 -311.0393 C 104.8646 -308.8831 104.1693 -306.7229 103.4778 -304.5667 C 102.8841 -302.719 102.2903 -300.8714 101.7005 -299.0276 C 101.6642 -298.9169 101.6283 -298.8062 101.5925 -298.6953 C 101.4002 -298.1021 101.2123 -297.5074 101.0247 -296.9182 Z " fill="#ffffff"/>
</g>
</g>
</g>
</svg>
