<?xml version="1.0" standalone="no"?>
<!DOCTYPE svg PUBLIC "-//W3C//DTD SVG 20010904//EN"
 "http://www.w3.org/TR/2001/REC-SVG-20010904/DTD/svg10.dtd">
<svg version="1.0" xmlns="http://www.w3.org/2000/svg"
 width="1024.000000pt" height="1024.000000pt" viewBox="0 0 1024.000000 1024.000000"
 preserveAspectRatio="xMidYMid meet">
<metadata>
Created by potrace 1.14, written by Peter Selinger 2001-2017
</metadata>
<g transform="translate(0.000000,1024.000000) scale(0.100000,-0.100000)"
fill="#000000" stroke="none">
<path d="M983 10222 c-78 -42 -505 -456 -703 -682 -109 -124 -262 -314 -272
-338 -4 -9 -7 -1844 -7 -4077 -1 -3896 0 -4062 17 -4096 21 -42 133 -182 262
-329 196 -224 625 -640 703 -682 30 -16 286 -17 4143 -18 l4111 0 39 29 c65
47 270 239 436 407 175 178 296 313 434 486 l94 117 -1 4068 c-1 2237 -4 4078
-7 4090 -8 26 -144 198 -272 343 -179 204 -571 589 -684 671 l-39 29 -4111 0
c-3857 -1 -4113 -2 -4143 -18z m2232 -731 c91 -42 162 -158 171 -278 5 -58
-16 -185 -146 -888 -222 -1210 -409 -2289 -397 -2301 2 -2 118 82 258 187
1103 829 1717 1224 2719 1750 599 314 1655 809 2115 992 541 215 894 308 1180
309 151 1 237 -16 326 -64 222 -118 272 -410 131 -770 -15 -40 -62 -149 -103
-243 -65 -150 -81 -177 -129 -225 -111 -113 -261 -106 -368 15 -47 54 -65 104
-64 186 0 80 23 151 107 328 41 86 77 169 81 184 l6 28 -53 -6 c-161 -19 -347
-62 -524 -120 -281 -94 -795 -308 -1225 -510 -326 -154 -1239 -604 -1434 -707
-703 -372 -1441 -849 -2292 -1480 -182 -135 -791 -596 -835 -632 -33 -28 -146
-1093 -184 -1741 -8 -143 -19 -321 -25 -396 -5 -74 -10 -178 -10 -230 0 -209
-52 -334 -164 -391 -130 -67 -319 21 -362 169 -14 48 -14 83 1 355 27 515 71
1076 124 1578 10 96 17 177 15 179 -6 6 -252 -221 -370 -341 -180 -184 -234
-248 -234 -277 0 -54 -52 -140 -114 -189 -24 -18 -34 -51 -97 -314 -113 -468
-179 -773 -168 -776 5 -2 31 -18 57 -36 67 -47 112 -135 112 -220 0 -89 -23
-155 -72 -211 -50 -57 -106 -84 -171 -85 -28 0 -64 -8 -89 -21 -22 -11 -65
-23 -94 -26 -110 -12 -237 83 -281 209 -15 43 -18 82 -18 208 1 220 27 356
206 1070 322 1289 698 2523 1071 3520 268 713 412 1033 758 1680 165 310 183
340 252 427 88 111 225 154 333 104z m4921 -2692 c226 -85 246 -387 68 -1027
-30 -108 -66 -244 -80 -302 -14 -58 -54 -215 -90 -350 -253 -970 -441 -2025
-570 -3195 -94 -862 -94 -858 -115 -902 -23 -48 -76 -99 -128 -121 -22 -9 -66
-16 -111 -16 -134 -1 -232 65 -265 178 -15 52 -14 69 25 432 169 1570 352
2669 595 3578 19 72 34 131 32 132 -2 2 -239 -404 -610 -1046 -300 -518 -405
-697 -463 -785 -112 -170 -230 -285 -354 -344 -47 -22 -69 -26 -145 -26 -79 0
-97 4 -148 29 -64 33 -154 121 -185 182 -53 103 -57 139 -56 454 0 346 22 578
95 1014 11 65 18 120 16 122 -5 6 -154 -304 -241 -503 -278 -634 -666 -1737
-806 -2293 -42 -168 -80 -382 -80 -455 0 -71 17 -129 84 -289 51 -125 63 -193
46 -265 -28 -116 -125 -186 -260 -186 -125 1 -201 49 -255 162 -98 207 -145
382 -152 568 -5 125 -3 156 21 280 65 332 181 737 361 1260 347 1008 617 1650
926 2205 147 264 518 838 580 897 73 70 193 98 291 69 72 -21 144 -85 183
-163 27 -52 30 -69 33 -178 5 -161 -13 -293 -103 -740 -81 -402 -124 -651
-155 -894 -23 -188 -44 -420 -38 -427 3 -2 38 53 78 123 41 71 202 349 358
618 495 852 574 990 807 1410 366 658 423 742 540 790 80 33 190 34 271 4z"/>
<path d="M2552 7567 c-178 -459 -395 -1066 -550 -1537 -111 -335 -274 -861
-270 -866 2 -1 44 31 93 72 50 42 163 132 251 200 l161 125 7 57 c31 262 175
1160 270 1677 30 164 54 300 53 302 -2 1 -8 -12 -15 -30z"/>
</g>
</svg>
